<?xml version="1.0" encoding="utf-8"?>
<!-- Generator: Adobe Illustrator 16.0.1, SVG Export Plug-In . SVG Version: 6.00 Build 0)  -->
<!DOCTYPE svg PUBLIC "-//W3C//DTD SVG 1.1//EN" "http://www.w3.org/Graphics/SVG/1.1/DTD/svg11.dtd">
<svg version="1.1" xmlns="http://www.w3.org/2000/svg" xmlns:xlink="http://www.w3.org/1999/xlink" x="0px" y="0px" width="353px"
	 height="83.053px" viewBox="0 0 353 83.053" enable-background="new 0 0 353 83.053" xml:space="preserve">
<g id="Layer_1">
</g>
<g id="Layer_2">
	<g>
		<g>
			<line stroke="#000000" stroke-width="5.9305" stroke-miterlimit="10" x1="240.102" y1="7.569" x2="240.102" y2="72.806"/>
			<path fill="#00A5E9" d="M254.444,40.188c0,7.912-6.427,14.323-14.343,14.323s-14.34-6.412-14.34-14.323
				c0-7.931,6.424-14.346,14.34-14.346S254.444,32.257,254.444,40.188z"/>
		</g>
		<g>
			<path d="M31.818,14.757c-0.994-1.612-2.322-2.787-3.982-3.522c-1.66-0.735-3.393-1.105-5.194-1.105
				c-1.33,0-2.633,0.169-3.917,0.499c-1.279,0.334-2.43,0.83-3.451,1.493c-1.019,0.668-1.836,1.544-2.454,2.636
				c-0.615,1.09-0.925,2.373-0.925,3.84c0,1.138,0.177,2.147,0.535,3.027c0.355,0.876,0.936,1.672,1.743,2.384
				c0.806,0.71,1.897,1.375,3.272,1.992s3.061,1.235,5.054,1.849c1.944,0.617,3.831,1.281,5.657,1.992
				c1.827,0.715,3.439,1.616,4.841,2.707c1.396,1.092,2.51,2.455,3.343,4.093c0.828,1.637,1.244,3.687,1.244,6.152
				c0,2.517-0.497,4.7-1.493,6.548c-0.995,1.854-2.312,3.383-3.95,4.592c-1.636,1.21-3.522,2.111-5.657,2.704
				c-2.133,0.592-4.342,0.89-6.619,0.89c-1.472,0-2.94-0.133-4.41-0.391c-1.472-0.262-2.883-0.664-4.234-1.209
				c-1.354-0.547-2.624-1.257-3.81-2.136c-1.186-0.876-2.205-1.957-3.06-3.238l5.124-4.197c1.091,1.85,2.61,3.249,4.555,4.197
				c1.943,0.952,4.011,1.425,6.191,1.425c1.282,0,2.574-0.191,3.879-0.571c1.303-0.38,2.479-0.937,3.521-1.673
				c1.045-0.736,1.897-1.647,2.564-2.739c0.661-1.091,0.995-2.347,0.995-3.773c0-1.565-0.26-2.832-0.781-3.805
				c-0.524-0.973-1.332-1.816-2.419-2.528c-1.095-0.711-2.469-1.354-4.13-1.92c-1.662-0.571-3.604-1.235-5.836-1.992
				c-1.804-0.571-3.464-1.221-4.979-1.957c-1.522-0.735-2.839-1.637-3.952-2.707c-1.113-1.066-1.991-2.348-2.633-3.841
				c-0.642-1.497-0.959-3.285-0.959-5.375c0-2.419,0.472-4.53,1.423-6.332c0.947-1.802,2.229-3.31,3.843-4.52
				c1.611-1.209,3.438-2.122,5.479-2.739c2.04-0.617,4.174-0.926,6.406-0.926c2.845,0,5.443,0.438,7.791,1.317
				c2.35,0.876,4.449,2.409,6.299,4.588L31.818,14.757z"/>
			<path d="M64.699,27.637h-9.82v16.653c0,1.091,0.023,2.096,0.072,3.023c0.045,0.926,0.236,1.734,0.569,2.419
				c0.331,0.69,0.827,1.235,1.494,1.637c0.664,0.406,1.611,0.607,2.845,0.607c0.809,0,1.638-0.098,2.49-0.288
				c0.856-0.186,1.661-0.474,2.42-0.854l0.215,5.055c-0.949,0.426-2.006,0.735-3.166,0.926c-1.165,0.187-2.268,0.284-3.312,0.284
				c-1.992,0-3.581-0.262-4.766-0.783c-1.188-0.52-2.111-1.255-2.775-2.207c-0.667-0.948-1.105-2.122-1.319-3.521
				c-0.213-1.4-0.316-2.954-0.316-4.66V27.637h-7.26v-4.695h7.26v-9.467h5.549v9.467h9.82V27.637z"/>
			<path d="M71.103,27.209c1.708-1.755,3.737-3.047,6.087-3.877c2.345-0.832,4.729-1.246,7.149-1.246
				c4.933,0,8.493,1.164,10.679,3.486c2.18,2.327,3.27,5.859,3.27,10.604v14.302c0,0.952,0.048,1.935,0.145,2.954
				c0.092,1.021,0.214,1.958,0.354,2.812h-5.338c-0.189-0.757-0.295-1.601-0.319-2.527c-0.024-0.923-0.035-1.741-0.035-2.455h-0.143
				c-1.094,1.708-2.55,3.108-4.378,4.2c-1.826,1.091-4.021,1.637-6.582,1.637c-1.707,0-3.31-0.216-4.802-0.643
				c-1.497-0.423-2.802-1.052-3.916-1.885c-1.116-0.829-2.005-1.859-2.669-3.094c-0.664-1.236-0.996-2.657-0.996-4.272
				c0-2.75,0.713-4.907,2.136-6.477c1.424-1.565,3.189-2.724,5.301-3.486c2.11-0.758,4.389-1.231,6.832-1.421
				c2.444-0.19,4.686-0.288,6.725-0.288h2.136V34.54c0-2.419-0.725-4.247-2.169-5.481c-1.45-1.231-3.478-1.849-6.086-1.849
				c-1.805,0-3.57,0.298-5.301,0.891c-1.734,0.592-3.266,1.503-4.591,2.739L71.103,27.209z M87.186,40.234
				c-3.557,0-6.382,0.496-8.469,1.494c-2.088,0.997-3.13,2.631-3.13,4.911c0,2.089,0.697,3.568,2.098,4.448
				c1.401,0.876,3.144,1.318,5.231,1.318c1.613,0,3.024-0.273,4.233-0.819c1.212-0.546,2.219-1.271,3.027-2.171
				c0.806-0.901,1.421-1.958,1.847-3.167c0.429-1.21,0.664-2.502,0.714-3.88v-2.133H87.186z"/>
			<path d="M126.684,27.637h-9.821v16.653c0,1.091,0.022,2.096,0.072,3.023c0.047,0.926,0.235,1.734,0.568,2.419
				c0.331,0.69,0.828,1.235,1.496,1.637c0.664,0.406,1.612,0.607,2.846,0.607c0.806,0,1.637-0.098,2.49-0.288
				c0.854-0.186,1.66-0.474,2.419-0.854l0.213,5.055c-0.948,0.426-2.003,0.735-3.166,0.926c-1.162,0.187-2.268,0.284-3.309,0.284
				c-1.994,0-3.584-0.262-4.769-0.783c-1.187-0.52-2.108-1.255-2.774-2.207c-0.667-0.948-1.104-2.122-1.317-3.521
				c-0.213-1.4-0.319-2.954-0.319-4.66V27.637h-7.26v-4.695h7.26v-9.467h5.55v9.467h9.821V27.637z"/>
			<path d="M134.226,47.493c1.092,1.375,2.29,2.466,3.597,3.274c1.303,0.804,2.953,1.21,4.945,1.21c0.853,0,1.721-0.098,2.599-0.288
				c0.878-0.186,1.67-0.495,2.383-0.922c0.711-0.428,1.28-0.962,1.708-1.601c0.426-0.643,0.641-1.415,0.641-2.315
				c0-0.901-0.202-1.638-0.604-2.204c-0.404-0.57-0.938-1.056-1.602-1.462c-0.667-0.401-1.423-0.721-2.278-0.958
				c-0.853-0.237-1.73-0.453-2.633-0.643c-1.566-0.33-3.06-0.711-4.483-1.138c-1.424-0.427-2.671-0.984-3.736-1.673
				c-1.066-0.686-1.921-1.576-2.562-2.667c-0.641-1.09-0.96-2.491-0.96-4.2c0-1.612,0.354-3.033,1.068-4.268
				c0.709-1.235,1.661-2.254,2.846-3.063c1.186-0.803,2.515-1.421,3.986-1.848c1.468-0.427,2.987-0.64,4.553-0.64
				c2.373,0,4.565,0.474,6.583,1.422c2.017,0.951,3.594,2.491,4.732,4.627l-4.625,3.059c-0.713-1.186-1.649-2.147-2.81-2.883
				c-1.165-0.736-2.575-1.103-4.236-1.103c-0.759,0-1.53,0.097-2.313,0.284c-0.78,0.19-1.482,0.474-2.097,0.854
				c-0.619,0.381-1.131,0.865-1.532,1.461c-0.401,0.592-0.604,1.268-0.604,2.025c0,0.714,0.226,1.318,0.675,1.816
				c0.45,0.499,1.07,0.938,1.854,1.318c0.78,0.38,1.681,0.71,2.702,0.994c1.021,0.287,2.077,0.524,3.167,0.711
				c1.469,0.288,2.871,0.653,4.199,1.106c1.327,0.452,2.49,1.055,3.486,1.813c0.996,0.761,1.779,1.708,2.349,2.847
				c0.571,1.138,0.854,2.538,0.854,4.2c0,1.898-0.382,3.511-1.138,4.839c-0.761,1.328-1.769,2.409-3.024,3.238
				c-1.259,0.829-2.683,1.435-4.271,1.812c-1.59,0.38-3.214,0.571-4.874,0.571c-2.847,0-5.304-0.438-7.365-1.318
				c-2.064-0.876-3.929-2.501-5.589-4.875L134.226,47.493z"/>
			<path d="M163.547,22.942h5.55v4.838h0.142c1.519-1.806,3.285-3.206,5.305-4.2c2.014-0.999,4.235-1.494,6.65-1.494
				c2.612,0,4.992,0.438,7.15,1.314c2.157,0.88,3.996,2.1,5.518,3.666c1.517,1.564,2.706,3.417,3.559,5.553
				c0.854,2.133,1.283,4.459,1.283,6.972c0,2.517-0.43,4.838-1.283,6.975c-0.853,2.135-2.027,3.985-3.524,5.55
				c-1.492,1.565-3.262,2.789-5.3,3.665c-2.042,0.88-4.225,1.318-6.549,1.318c-2.986,0-5.609-0.653-7.86-1.957
				c-2.255-1.307-3.905-2.907-4.948-4.804h-0.142v22.133h-5.55V22.942z M169.097,39.592c0,1.755,0.274,3.382,0.819,4.875
				c0.543,1.494,1.339,2.801,2.383,3.914c1.044,1.116,2.288,1.996,3.737,2.634c1.448,0.64,3.069,0.963,4.874,0.963
				c1.801,0,3.424-0.323,4.875-0.963c1.447-0.639,2.688-1.518,3.732-2.634c1.047-1.113,1.84-2.419,2.386-3.914
				c0.545-1.493,0.817-3.119,0.817-4.875s-0.272-3.378-0.817-4.875c-0.546-1.494-1.339-2.797-2.386-3.913
				c-1.045-1.113-2.285-1.992-3.732-2.631c-1.451-0.642-3.074-0.962-4.875-0.962c-1.805,0-3.426,0.32-4.874,0.962
				c-1.449,0.64-2.693,1.519-3.737,2.631c-1.044,1.116-1.84,2.419-2.383,3.913C169.371,36.213,169.097,37.836,169.097,39.592z"/>
			<path d="M207.808,2.443h5.553v53.802h-5.553V2.443z"/>
			<path d="M222.473,39.592c0-2.607,0.447-4.979,1.35-7.115c0.898-2.136,2.136-3.975,3.699-5.514
				c1.566-1.543,3.44-2.743,5.621-3.598c2.183-0.851,4.557-1.278,7.119-1.278c2.56,0,4.935,0.428,7.115,1.278
				c2.183,0.854,4.057,2.054,5.623,3.598c1.565,1.54,2.801,3.378,3.701,5.514c0.899,2.136,1.354,4.508,1.354,7.115
				c0,2.61-0.455,4.982-1.354,7.119c-0.9,2.133-2.136,3.974-3.701,5.514c-1.566,1.544-3.44,2.739-5.623,3.593
				c-2.181,0.855-4.556,1.282-7.115,1.282c-2.562,0-4.937-0.427-7.119-1.282c-2.181-0.854-4.055-2.049-5.621-3.593
				c-1.563-1.54-2.801-3.381-3.699-5.514C222.92,44.574,222.473,42.202,222.473,39.592z M228.448,39.592
				c0,1.755,0.272,3.382,0.817,4.875c0.546,1.494,1.339,2.801,2.385,3.914c1.045,1.116,2.286,1.996,3.737,2.634
				c1.447,0.64,3.07,0.963,4.874,0.963c1.805,0,3.427-0.323,4.874-0.963c1.447-0.639,2.689-1.518,3.734-2.634
				c1.046-1.113,1.839-2.419,2.384-3.914c0.547-1.493,0.819-3.119,0.819-4.875s-0.272-3.378-0.819-4.875
				c-0.545-1.494-1.338-2.797-2.384-3.913c-1.045-1.113-2.287-1.992-3.734-2.631c-1.447-0.642-3.069-0.962-4.874-0.962
				c-1.804,0-3.427,0.32-4.874,0.962c-1.451,0.64-2.692,1.519-3.737,2.631c-1.046,1.116-1.839,2.419-2.385,3.913
				C228.721,36.213,228.448,37.836,228.448,39.592z"/>
			<path d="M266.663,30.839c0-1.519-0.048-2.94-0.143-4.269s-0.141-2.539-0.141-3.629h5.267c0,0.901,0.021,1.801,0.065,2.702
				c0.05,0.901,0.074,1.828,0.074,2.776h0.143c0.382-0.808,0.913-1.59,1.603-2.348c0.686-0.757,1.502-1.436,2.454-2.028
				c0.947-0.592,2.014-1.07,3.203-1.425c1.185-0.354,2.464-0.532,3.842-0.532c0.381,0,0.759,0.022,1.14,0.068
				c0.379,0.051,0.76,0.144,1.141,0.288l-0.357,5.621c-0.951-0.283-1.944-0.426-2.989-0.426c-3.416,0-5.895,1.102-7.44,3.309
				c-1.539,2.205-2.312,5.231-2.312,9.072v16.227h-5.549V30.839z"/>
			<path d="M320.177,50.196c-1.99,2.562-4.175,4.355-6.546,5.374c-2.374,1.02-5.125,1.529-8.255,1.529
				c-2.608,0-4.957-0.463-7.045-1.389c-2.087-0.923-3.856-2.168-5.3-3.733c-1.453-1.569-2.563-3.418-3.347-5.554
				c-0.783-2.132-1.172-4.412-1.172-6.831c0-2.56,0.427-4.922,1.28-7.08c0.85-2.157,2.038-4.01,3.559-5.55
				c1.519-1.543,3.318-2.743,5.406-3.598c2.087-0.851,4.363-1.278,6.832-1.278c2.325,0,4.458,0.392,6.405,1.174
				c1.944,0.783,3.615,1.921,5.017,3.414c1.399,1.497,2.479,3.321,3.238,5.481c0.758,2.159,1.136,4.614,1.136,7.364v1.78h-26.897
				c0.095,1.425,0.437,2.789,1.031,4.093c0.591,1.307,1.363,2.445,2.314,3.414c0.947,0.973,2.063,1.745,3.343,2.316
				c1.28,0.566,2.682,0.854,4.199,0.854c2.42,0,4.458-0.428,6.122-1.282c1.658-0.854,3.154-2.111,4.482-3.773L320.177,50.196z
				 M315.411,36.605c-0.098-2.848-1.021-5.127-2.776-6.832c-1.756-1.709-4.175-2.563-7.259-2.563s-5.573,0.854-7.476,2.563
				c-1.895,1.705-3.03,3.984-3.412,6.832H315.411z"/>
			<path d="M330.002,30.839c0-1.519-0.05-2.94-0.145-4.269c-0.094-1.329-0.143-2.539-0.143-3.629h5.27
				c0,0.901,0.021,1.801,0.065,2.702c0.05,0.901,0.073,1.828,0.073,2.776h0.145c0.381-0.808,0.912-1.59,1.601-2.348
				c0.685-0.757,1.504-1.436,2.454-2.028c0.949-0.592,2.016-1.07,3.203-1.425c1.186-0.354,2.465-0.532,3.843-0.532
				c0.378,0,0.759,0.022,1.14,0.068c0.377,0.051,0.759,0.144,1.141,0.288l-0.357,5.621c-0.951-0.283-1.947-0.426-2.989-0.426
				c-3.416,0-5.896,1.102-7.44,3.309c-1.538,2.205-2.311,5.231-2.311,9.072v16.227h-5.549V30.839z"/>
		</g>
		<g>
			<polygon fill="#FFFFFF" points="261.359,82.079 266.068,79.698 270.149,77.71 263.66,66.254 274.607,63.701 245.863,39.139 
				245.863,77.2 254.244,69.55 			"/>
			<polygon points="266.562,76.346 262.104,78.578 252.602,61.803 257.059,59.566 			"/>
			<polygon points="248.385,44.861 248.385,71.455 256.614,63.985 268.66,63.985 			"/>
		</g>
	</g>
</g>
</svg>
